<mxfile host="app.diagrams.net" agent="Mozilla/5.0 (Macintosh; Intel Mac OS X 10_15_7) AppleWebKit/605.1.15 (KHTML, like Gecko) Version/18.4 Safari/605.1.15" version="26.2.15">
  <diagram name="Page-1" id="a7904f86-f2b4-8e86-fa97-74104820619b">
    <mxGraphModel dx="3626" dy="1687" grid="1" gridSize="10" guides="1" tooltips="1" connect="1" arrows="1" fold="1" page="1" pageScale="1" pageWidth="1100" pageHeight="850" background="#FFFFFF" math="0" shadow="0">
      <root>
        <mxCell id="0" />
        <mxCell id="1" parent="0" />
        <mxCell id="0PUOpv4q3WC7BL36jvcQ-1" value="" style="rounded=0;whiteSpace=wrap;html=1;" parent="1" vertex="1">
          <mxGeometry x="-1295" y="-850" width="1685" height="850" as="geometry" />
        </mxCell>
        <mxCell id="CKcXtdMAVw7ahf70taSX-3" value="User" style="swimlane;fontStyle=0;childLayout=stackLayout;horizontal=1;startSize=30;horizontalStack=0;resizeParent=1;resizeParentMax=0;resizeLast=0;collapsible=1;marginBottom=0;whiteSpace=wrap;html=1;" parent="1" vertex="1">
          <mxGeometry x="-1070" y="-410" width="200" height="240" as="geometry" />
        </mxCell>
        <mxCell id="CKcXtdMAVw7ahf70taSX-4" value="id (key)&amp;nbsp;&lt;span style=&quot;color: rgb(150, 150, 150);&quot;&gt;bigint&lt;/span&gt;" style="text;strokeColor=none;fillColor=none;align=left;verticalAlign=middle;spacingLeft=4;spacingRight=4;overflow=hidden;points=[[0,0.5],[1,0.5]];portConstraint=eastwest;rotatable=0;whiteSpace=wrap;html=1;" parent="CKcXtdMAVw7ahf70taSX-3" vertex="1">
          <mxGeometry y="30" width="200" height="30" as="geometry" />
        </mxCell>
        <mxCell id="CKcXtdMAVw7ahf70taSX-5" value="username&amp;nbsp;&lt;span style=&quot;caret-color: rgb(150, 150, 150); color: rgb(150, 150, 150);&quot;&gt;varchar(50)&lt;/span&gt;" style="text;strokeColor=none;fillColor=none;align=left;verticalAlign=middle;spacingLeft=4;spacingRight=4;overflow=hidden;points=[[0,0.5],[1,0.5]];portConstraint=eastwest;rotatable=0;whiteSpace=wrap;html=1;" parent="CKcXtdMAVw7ahf70taSX-3" vertex="1">
          <mxGeometry y="60" width="200" height="30" as="geometry" />
        </mxCell>
        <mxCell id="CKcXtdMAVw7ahf70taSX-6" value="password&amp;nbsp;&lt;span style=&quot;caret-color: rgb(150, 150, 150); color: rgb(150, 150, 150);&quot;&gt;text&lt;/span&gt;" style="text;strokeColor=none;fillColor=none;align=left;verticalAlign=middle;spacingLeft=4;spacingRight=4;overflow=hidden;points=[[0,0.5],[1,0.5]];portConstraint=eastwest;rotatable=0;whiteSpace=wrap;html=1;" parent="CKcXtdMAVw7ahf70taSX-3" vertex="1">
          <mxGeometry y="90" width="200" height="30" as="geometry" />
        </mxCell>
        <mxCell id="CKcXtdMAVw7ahf70taSX-13" value="first_name&amp;nbsp;&lt;span style=&quot;caret-color: rgb(150, 150, 150); color: rgb(150, 150, 150);&quot;&gt;varchar(50)&lt;/span&gt;" style="text;strokeColor=none;fillColor=none;align=left;verticalAlign=middle;spacingLeft=4;spacingRight=4;overflow=hidden;points=[[0,0.5],[1,0.5]];portConstraint=eastwest;rotatable=0;whiteSpace=wrap;html=1;" parent="CKcXtdMAVw7ahf70taSX-3" vertex="1">
          <mxGeometry y="120" width="200" height="30" as="geometry" />
        </mxCell>
        <mxCell id="CKcXtdMAVw7ahf70taSX-14" value="last_name&amp;nbsp;&lt;span style=&quot;caret-color: rgb(150, 150, 150); color: rgb(150, 150, 150);&quot;&gt;varchar(50)&lt;/span&gt;" style="text;strokeColor=none;fillColor=none;align=left;verticalAlign=middle;spacingLeft=4;spacingRight=4;overflow=hidden;points=[[0,0.5],[1,0.5]];portConstraint=eastwest;rotatable=0;whiteSpace=wrap;html=1;" parent="CKcXtdMAVw7ahf70taSX-3" vertex="1">
          <mxGeometry y="150" width="200" height="30" as="geometry" />
        </mxCell>
        <mxCell id="CKcXtdMAVw7ahf70taSX-15" value="email&amp;nbsp;&lt;span style=&quot;caret-color: rgb(150, 150, 150); color: rgb(150, 150, 150);&quot;&gt;varchar(100)&lt;/span&gt;" style="text;strokeColor=none;fillColor=none;align=left;verticalAlign=middle;spacingLeft=4;spacingRight=4;overflow=hidden;points=[[0,0.5],[1,0.5]];portConstraint=eastwest;rotatable=0;whiteSpace=wrap;html=1;" parent="CKcXtdMAVw7ahf70taSX-3" vertex="1">
          <mxGeometry y="180" width="200" height="30" as="geometry" />
        </mxCell>
        <mxCell id="CKcXtdMAVw7ahf70taSX-16" value="phone&amp;nbsp;&lt;span style=&quot;caret-color: rgb(150, 150, 150); color: rgb(150, 150, 150);&quot;&gt;varchar(15)&lt;/span&gt;" style="text;strokeColor=none;fillColor=none;align=left;verticalAlign=middle;spacingLeft=4;spacingRight=4;overflow=hidden;points=[[0,0.5],[1,0.5]];portConstraint=eastwest;rotatable=0;whiteSpace=wrap;html=1;" parent="CKcXtdMAVw7ahf70taSX-3" vertex="1">
          <mxGeometry y="210" width="200" height="30" as="geometry" />
        </mxCell>
        <mxCell id="CKcXtdMAVw7ahf70taSX-17" value="Customer" style="swimlane;fontStyle=0;childLayout=stackLayout;horizontal=1;startSize=26;horizontalStack=0;resizeParent=1;resizeParentMax=0;resizeLast=0;collapsible=1;marginBottom=0;align=center;fontSize=14;" parent="1" vertex="1">
          <mxGeometry x="-540" y="-410" width="160" height="236" as="geometry" />
        </mxCell>
        <mxCell id="CKcXtdMAVw7ahf70taSX-18" value="id (key)&amp;nbsp;&lt;span style=&quot;caret-color: rgb(150, 150, 150); color: rgb(150, 150, 150);&quot;&gt;bigint&lt;/span&gt;" style="text;strokeColor=none;fillColor=none;spacingLeft=4;spacingRight=4;overflow=hidden;rotatable=0;points=[[0,0.5],[1,0.5]];portConstraint=eastwest;fontSize=12;whiteSpace=wrap;html=1;" parent="CKcXtdMAVw7ahf70taSX-17" vertex="1">
          <mxGeometry y="26" width="160" height="30" as="geometry" />
        </mxCell>
        <mxCell id="CKcXtdMAVw7ahf70taSX-120" value="username&amp;nbsp;&lt;span style=&quot;caret-color: rgb(150, 150, 150); color: rgb(150, 150, 150);&quot;&gt;varchar(50)&lt;/span&gt;" style="text;strokeColor=none;fillColor=none;align=left;verticalAlign=middle;spacingLeft=4;spacingRight=4;overflow=hidden;points=[[0,0.5],[1,0.5]];portConstraint=eastwest;rotatable=0;whiteSpace=wrap;html=1;" parent="CKcXtdMAVw7ahf70taSX-17" vertex="1">
          <mxGeometry y="56" width="160" height="30" as="geometry" />
        </mxCell>
        <mxCell id="CKcXtdMAVw7ahf70taSX-121" value="password&amp;nbsp;&lt;span style=&quot;caret-color: rgb(150, 150, 150); color: rgb(150, 150, 150);&quot;&gt;text&lt;/span&gt;" style="text;strokeColor=none;fillColor=none;align=left;verticalAlign=middle;spacingLeft=4;spacingRight=4;overflow=hidden;points=[[0,0.5],[1,0.5]];portConstraint=eastwest;rotatable=0;whiteSpace=wrap;html=1;" parent="CKcXtdMAVw7ahf70taSX-17" vertex="1">
          <mxGeometry y="86" width="160" height="30" as="geometry" />
        </mxCell>
        <mxCell id="CKcXtdMAVw7ahf70taSX-19" value="first_name&amp;nbsp;&lt;span style=&quot;caret-color: rgb(150, 150, 150); color: rgb(150, 150, 150);&quot;&gt;varchar(50)&lt;/span&gt;" style="text;strokeColor=none;fillColor=none;spacingLeft=4;spacingRight=4;overflow=hidden;rotatable=0;points=[[0,0.5],[1,0.5]];portConstraint=eastwest;fontSize=12;whiteSpace=wrap;html=1;" parent="CKcXtdMAVw7ahf70taSX-17" vertex="1">
          <mxGeometry y="116" width="160" height="30" as="geometry" />
        </mxCell>
        <mxCell id="CKcXtdMAVw7ahf70taSX-20" value="last_name&amp;nbsp;&lt;span style=&quot;caret-color: rgb(150, 150, 150); color: rgb(150, 150, 150);&quot;&gt;varchar(50)&lt;/span&gt;" style="text;strokeColor=none;fillColor=none;spacingLeft=4;spacingRight=4;overflow=hidden;rotatable=0;points=[[0,0.5],[1,0.5]];portConstraint=eastwest;fontSize=12;whiteSpace=wrap;html=1;" parent="CKcXtdMAVw7ahf70taSX-17" vertex="1">
          <mxGeometry y="146" width="160" height="30" as="geometry" />
        </mxCell>
        <mxCell id="CKcXtdMAVw7ahf70taSX-22" value="email&amp;nbsp;&lt;span style=&quot;caret-color: rgb(150, 150, 150); color: rgb(150, 150, 150);&quot;&gt;varchar(100)&lt;/span&gt;" style="text;strokeColor=none;fillColor=none;spacingLeft=4;spacingRight=4;overflow=hidden;rotatable=0;points=[[0,0.5],[1,0.5]];portConstraint=eastwest;fontSize=12;whiteSpace=wrap;html=1;" parent="CKcXtdMAVw7ahf70taSX-17" vertex="1">
          <mxGeometry y="176" width="160" height="30" as="geometry" />
        </mxCell>
        <mxCell id="CKcXtdMAVw7ahf70taSX-23" value="phone&amp;nbsp;&lt;span style=&quot;caret-color: rgb(150, 150, 150); color: rgb(150, 150, 150);&quot;&gt;varchar(15)&lt;/span&gt;" style="text;strokeColor=none;fillColor=none;spacingLeft=4;spacingRight=4;overflow=hidden;rotatable=0;points=[[0,0.5],[1,0.5]];portConstraint=eastwest;fontSize=12;whiteSpace=wrap;html=1;" parent="CKcXtdMAVw7ahf70taSX-17" vertex="1">
          <mxGeometry y="206" width="160" height="30" as="geometry" />
        </mxCell>
        <mxCell id="CKcXtdMAVw7ahf70taSX-25" value="Horses" style="swimlane;fontStyle=0;childLayout=stackLayout;horizontal=1;startSize=26;horizontalStack=0;resizeParent=1;resizeParentMax=0;resizeLast=0;collapsible=1;marginBottom=0;align=center;fontSize=14;" parent="1" vertex="1">
          <mxGeometry x="-320" y="-410" width="160" height="146" as="geometry">
            <mxRectangle x="280" y="-380" width="80" height="30" as="alternateBounds" />
          </mxGeometry>
        </mxCell>
        <mxCell id="CKcXtdMAVw7ahf70taSX-26" value="id (key)&amp;nbsp;&lt;span style=&quot;caret-color: rgb(150, 150, 150); color: rgb(150, 150, 150);&quot;&gt;bigint&lt;/span&gt;" style="text;strokeColor=none;fillColor=none;spacingLeft=4;spacingRight=4;overflow=hidden;rotatable=0;points=[[0,0.5],[1,0.5]];portConstraint=eastwest;fontSize=12;whiteSpace=wrap;html=1;" parent="CKcXtdMAVw7ahf70taSX-25" vertex="1">
          <mxGeometry y="26" width="160" height="30" as="geometry" />
        </mxCell>
        <mxCell id="CKcXtdMAVw7ahf70taSX-27" value="name&amp;nbsp;&lt;span style=&quot;caret-color: rgb(150, 150, 150); color: rgb(150, 150, 150);&quot;&gt;varchar(50)&lt;/span&gt;" style="text;strokeColor=none;fillColor=none;spacingLeft=4;spacingRight=4;overflow=hidden;rotatable=0;points=[[0,0.5],[1,0.5]];portConstraint=eastwest;fontSize=12;whiteSpace=wrap;html=1;" parent="CKcXtdMAVw7ahf70taSX-25" vertex="1">
          <mxGeometry y="56" width="160" height="30" as="geometry" />
        </mxCell>
        <mxCell id="CKcXtdMAVw7ahf70taSX-28" value="age&amp;nbsp;&lt;span style=&quot;caret-color: rgb(150, 150, 150); color: rgb(150, 150, 150);&quot;&gt;bigint&lt;/span&gt;" style="text;strokeColor=none;fillColor=none;spacingLeft=4;spacingRight=4;overflow=hidden;rotatable=0;points=[[0,0.5],[1,0.5]];portConstraint=eastwest;fontSize=12;whiteSpace=wrap;html=1;" parent="CKcXtdMAVw7ahf70taSX-25" vertex="1">
          <mxGeometry y="86" width="160" height="30" as="geometry" />
        </mxCell>
        <mxCell id="CKcXtdMAVw7ahf70taSX-29" value="customer_id&amp;nbsp;&lt;span style=&quot;caret-color: rgb(150, 150, 150); color: rgb(150, 150, 150);&quot;&gt;bigint&lt;/span&gt;" style="text;strokeColor=none;fillColor=none;spacingLeft=4;spacingRight=4;overflow=hidden;rotatable=0;points=[[0,0.5],[1,0.5]];portConstraint=eastwest;fontSize=12;whiteSpace=wrap;html=1;" parent="CKcXtdMAVw7ahf70taSX-25" vertex="1">
          <mxGeometry y="116" width="160" height="30" as="geometry" />
        </mxCell>
        <mxCell id="CKcXtdMAVw7ahf70taSX-32" value="Consultations" style="swimlane;fontStyle=0;childLayout=stackLayout;horizontal=1;startSize=26;horizontalStack=0;resizeParent=1;resizeParentMax=0;resizeLast=0;collapsible=1;marginBottom=0;align=center;fontSize=14;" parent="1" vertex="1">
          <mxGeometry x="-100" y="-410" width="160" height="116" as="geometry" />
        </mxCell>
        <mxCell id="CKcXtdMAVw7ahf70taSX-33" value="id (key)&amp;nbsp;&lt;span data-darkreader-inline-color=&quot;&quot; style=&quot;caret-color: rgb(150, 150, 150); color: rgb(150, 150, 150); --darkreader-inline-color: #a49c90;&quot;&gt;bigint&lt;/span&gt;" style="text;strokeColor=none;fillColor=none;spacingLeft=4;spacingRight=4;overflow=hidden;rotatable=0;points=[[0,0.5],[1,0.5]];portConstraint=eastwest;fontSize=12;whiteSpace=wrap;html=1;" parent="CKcXtdMAVw7ahf70taSX-32" vertex="1">
          <mxGeometry y="26" width="160" height="30" as="geometry" />
        </mxCell>
        <mxCell id="CKcXtdMAVw7ahf70taSX-34" value="horse_id&amp;nbsp;&lt;span style=&quot;caret-color: rgb(150, 150, 150); color: rgb(150, 150, 150);&quot;&gt;bigint&lt;/span&gt;" style="text;strokeColor=none;fillColor=none;spacingLeft=4;spacingRight=4;overflow=hidden;rotatable=0;points=[[0,0.5],[1,0.5]];portConstraint=eastwest;fontSize=12;whiteSpace=wrap;html=1;" parent="CKcXtdMAVw7ahf70taSX-32" vertex="1">
          <mxGeometry y="56" width="160" height="30" as="geometry" />
        </mxCell>
        <mxCell id="CKcXtdMAVw7ahf70taSX-35" value="timestamp&amp;nbsp;&lt;span style=&quot;caret-color: rgb(150, 150, 150); color: rgb(150, 150, 150);&quot;&gt;timestamp&lt;/span&gt;" style="text;strokeColor=none;fillColor=none;spacingLeft=4;spacingRight=4;overflow=hidden;rotatable=0;points=[[0,0.5],[1,0.5]];portConstraint=eastwest;fontSize=12;whiteSpace=wrap;html=1;" parent="CKcXtdMAVw7ahf70taSX-32" vertex="1">
          <mxGeometry y="86" width="160" height="30" as="geometry" />
        </mxCell>
        <mxCell id="CKcXtdMAVw7ahf70taSX-43" value="Consultation Details" style="swimlane;fontStyle=0;childLayout=stackLayout;horizontal=1;startSize=26;horizontalStack=0;resizeParent=1;resizeParentMax=0;resizeLast=0;collapsible=1;marginBottom=0;align=center;fontSize=14;" parent="1" vertex="1">
          <mxGeometry x="-320" y="-710" width="320" height="206" as="geometry" />
        </mxCell>
        <mxCell id="CKcXtdMAVw7ahf70taSX-44" value="consultation_id&amp;nbsp;&lt;span style=&quot;caret-color: rgb(150, 150, 150); color: rgb(150, 150, 150);&quot;&gt;bigint&lt;/span&gt;" style="text;strokeColor=none;fillColor=none;spacingLeft=4;spacingRight=4;overflow=hidden;rotatable=0;points=[[0,0.5],[1,0.5]];portConstraint=eastwest;fontSize=12;whiteSpace=wrap;html=1;" parent="CKcXtdMAVw7ahf70taSX-43" vertex="1">
          <mxGeometry y="26" width="320" height="30" as="geometry" />
        </mxCell>
        <mxCell id="CKcXtdMAVw7ahf70taSX-50" value="horse_id&amp;nbsp;&lt;span style=&quot;caret-color: rgb(150, 150, 150); color: rgb(150, 150, 150);&quot;&gt;bigint&lt;/span&gt;" style="text;strokeColor=none;fillColor=none;spacingLeft=4;spacingRight=4;overflow=hidden;rotatable=0;points=[[0,0.5],[1,0.5]];portConstraint=eastwest;fontSize=12;whiteSpace=wrap;html=1;" parent="CKcXtdMAVw7ahf70taSX-43" vertex="1">
          <mxGeometry y="56" width="320" height="30" as="geometry" />
        </mxCell>
        <mxCell id="CKcXtdMAVw7ahf70taSX-49" value="product_id&amp;nbsp;&lt;span style=&quot;caret-color: rgb(150, 150, 150); color: rgb(150, 150, 150);&quot;&gt;bigint&lt;/span&gt;" style="text;strokeColor=none;fillColor=none;spacingLeft=4;spacingRight=4;overflow=hidden;rotatable=0;points=[[0,0.5],[1,0.5]];portConstraint=eastwest;fontSize=12;whiteSpace=wrap;html=1;" parent="CKcXtdMAVw7ahf70taSX-43" vertex="1">
          <mxGeometry y="86" width="320" height="30" as="geometry" />
        </mxCell>
        <mxCell id="CKcXtdMAVw7ahf70taSX-45" value="user_id&amp;nbsp;&lt;span style=&quot;caret-color: rgb(150, 150, 150); color: rgb(150, 150, 150);&quot;&gt;bigint&lt;/span&gt;" style="text;strokeColor=none;fillColor=none;spacingLeft=4;spacingRight=4;overflow=hidden;rotatable=0;points=[[0,0.5],[1,0.5]];portConstraint=eastwest;fontSize=12;whiteSpace=wrap;html=1;" parent="CKcXtdMAVw7ahf70taSX-43" vertex="1">
          <mxGeometry y="116" width="320" height="30" as="geometry" />
        </mxCell>
        <mxCell id="CKcXtdMAVw7ahf70taSX-52" value="quantity&amp;nbsp;&lt;span style=&quot;caret-color: rgb(150, 150, 150); color: rgb(150, 150, 150);&quot;&gt;int&lt;/span&gt;" style="text;strokeColor=none;fillColor=none;spacingLeft=4;spacingRight=4;overflow=hidden;rotatable=0;points=[[0,0.5],[1,0.5]];portConstraint=eastwest;fontSize=12;whiteSpace=wrap;html=1;" parent="CKcXtdMAVw7ahf70taSX-43" vertex="1">
          <mxGeometry y="146" width="320" height="30" as="geometry" />
        </mxCell>
        <mxCell id="CKcXtdMAVw7ahf70taSX-47" value="(key)&amp;nbsp;(consultation_id, product_id, user_id)" style="text;strokeColor=none;fillColor=none;spacingLeft=4;spacingRight=4;overflow=hidden;rotatable=0;points=[[0,0.5],[1,0.5]];portConstraint=eastwest;fontSize=12;whiteSpace=wrap;html=1;" parent="CKcXtdMAVw7ahf70taSX-43" vertex="1">
          <mxGeometry y="176" width="320" height="30" as="geometry" />
        </mxCell>
        <mxCell id="CKcXtdMAVw7ahf70taSX-53" value="Product Catalogs" style="swimlane;fontStyle=0;childLayout=stackLayout;horizontal=1;startSize=26;horizontalStack=0;resizeParent=1;resizeParentMax=0;resizeLast=0;collapsible=1;marginBottom=0;align=center;fontSize=14;" parent="1" vertex="1">
          <mxGeometry x="-780" y="-710" width="180" height="176" as="geometry" />
        </mxCell>
        <mxCell id="CKcXtdMAVw7ahf70taSX-54" value="id (key)&amp;nbsp;&lt;span style=&quot;caret-color: rgb(150, 150, 150); color: rgb(150, 150, 150);&quot;&gt;bigint&lt;/span&gt;" style="text;strokeColor=none;fillColor=none;spacingLeft=4;spacingRight=4;overflow=hidden;rotatable=0;points=[[0,0.5],[1,0.5]];portConstraint=eastwest;fontSize=12;whiteSpace=wrap;html=1;" parent="CKcXtdMAVw7ahf70taSX-53" vertex="1">
          <mxGeometry y="26" width="180" height="30" as="geometry" />
        </mxCell>
        <mxCell id="CKcXtdMAVw7ahf70taSX-55" value="name&amp;nbsp;&lt;span style=&quot;caret-color: rgb(150, 150, 150); color: rgb(150, 150, 150);&quot;&gt;varchar(50)&lt;/span&gt;" style="text;strokeColor=none;fillColor=none;spacingLeft=4;spacingRight=4;overflow=hidden;rotatable=0;points=[[0,0.5],[1,0.5]];portConstraint=eastwest;fontSize=12;whiteSpace=wrap;html=1;" parent="CKcXtdMAVw7ahf70taSX-53" vertex="1">
          <mxGeometry y="56" width="180" height="30" as="geometry" />
        </mxCell>
        <mxCell id="CKcXtdMAVw7ahf70taSX-56" value="type&amp;nbsp;&lt;span style=&quot;caret-color: rgb(150, 150, 150); color: rgb(150, 150, 150);&quot;&gt;varchar(20)&lt;/span&gt;" style="text;strokeColor=none;fillColor=none;spacingLeft=4;spacingRight=4;overflow=hidden;rotatable=0;points=[[0,0.5],[1,0.5]];portConstraint=eastwest;fontSize=12;whiteSpace=wrap;html=1;" parent="CKcXtdMAVw7ahf70taSX-53" vertex="1">
          <mxGeometry y="86" width="180" height="30" as="geometry" />
        </mxCell>
        <mxCell id="CKcXtdMAVw7ahf70taSX-57" value="price&amp;nbsp;&lt;span style=&quot;caret-color: rgb(150, 150, 150); color: rgb(150, 150, 150);&quot;&gt;numeric(10, 2)&lt;/span&gt;" style="text;strokeColor=none;fillColor=none;spacingLeft=4;spacingRight=4;overflow=hidden;rotatable=0;points=[[0,0.5],[1,0.5]];portConstraint=eastwest;fontSize=12;whiteSpace=wrap;html=1;" parent="CKcXtdMAVw7ahf70taSX-53" vertex="1">
          <mxGeometry y="116" width="180" height="30" as="geometry" />
        </mxCell>
        <mxCell id="CKcXtdMAVw7ahf70taSX-58" value="user_id&amp;nbsp;&lt;span style=&quot;caret-color: rgb(150, 150, 150); color: rgb(150, 150, 150);&quot;&gt;bigint&lt;/span&gt;" style="text;strokeColor=none;fillColor=none;spacingLeft=4;spacingRight=4;overflow=hidden;rotatable=0;points=[[0,0.5],[1,0.5]];portConstraint=eastwest;fontSize=12;whiteSpace=wrap;html=1;" parent="CKcXtdMAVw7ahf70taSX-53" vertex="1">
          <mxGeometry y="146" width="180" height="30" as="geometry" />
        </mxCell>
        <mxCell id="CKcXtdMAVw7ahf70taSX-71" value="" style="edgeStyle=entityRelationEdgeStyle;fontSize=12;html=1;endArrow=ERoneToMany;rounded=0;exitX=1;exitY=0.5;exitDx=0;exitDy=0;entryX=0;entryY=0.5;entryDx=0;entryDy=0;" parent="1" source="CKcXtdMAVw7ahf70taSX-18" target="CKcXtdMAVw7ahf70taSX-29" edge="1">
          <mxGeometry width="100" height="100" relative="1" as="geometry">
            <mxPoint x="-250" y="-200" as="sourcePoint" />
            <mxPoint x="-150" y="-300" as="targetPoint" />
          </mxGeometry>
        </mxCell>
        <mxCell id="CKcXtdMAVw7ahf70taSX-72" value="" style="edgeStyle=entityRelationEdgeStyle;fontSize=12;html=1;endArrow=ERoneToMany;rounded=0;exitX=1;exitY=0.5;exitDx=0;exitDy=0;entryX=0;entryY=0.5;entryDx=0;entryDy=0;" parent="1" source="CKcXtdMAVw7ahf70taSX-26" target="CKcXtdMAVw7ahf70taSX-34" edge="1">
          <mxGeometry width="100" height="100" relative="1" as="geometry">
            <mxPoint x="40" y="-60" as="sourcePoint" />
            <mxPoint x="140" y="-160" as="targetPoint" />
          </mxGeometry>
        </mxCell>
        <mxCell id="CKcXtdMAVw7ahf70taSX-88" value="" style="edgeStyle=entityRelationEdgeStyle;fontSize=12;html=1;endArrow=ERoneToMany;rounded=0;entryX=1;entryY=0.5;entryDx=0;entryDy=0;" parent="1" target="CKcXtdMAVw7ahf70taSX-44" edge="1">
          <mxGeometry width="100" height="100" relative="1" as="geometry">
            <mxPoint x="120" y="-370" as="sourcePoint" />
            <mxPoint x="200" y="-370" as="targetPoint" />
            <Array as="points">
              <mxPoint x="140" y="-520" />
              <mxPoint x="70" y="-510" />
            </Array>
          </mxGeometry>
        </mxCell>
        <mxCell id="CKcXtdMAVw7ahf70taSX-89" value="" style="endArrow=none;html=1;rounded=0;exitX=1;exitY=0.5;exitDx=0;exitDy=0;" parent="1" edge="1">
          <mxGeometry width="50" height="50" relative="1" as="geometry">
            <mxPoint x="60" y="-370" as="sourcePoint" />
            <mxPoint x="120" y="-370" as="targetPoint" />
          </mxGeometry>
        </mxCell>
        <mxCell id="CKcXtdMAVw7ahf70taSX-122" value="User-Customer" style="swimlane;fontStyle=0;childLayout=stackLayout;horizontal=1;startSize=30;horizontalStack=0;resizeParent=1;resizeParentMax=0;resizeLast=0;collapsible=1;marginBottom=0;whiteSpace=wrap;html=1;" parent="1" vertex="1">
          <mxGeometry x="-810" y="-410" width="210" height="120" as="geometry" />
        </mxCell>
        <mxCell id="CKcXtdMAVw7ahf70taSX-123" value="user_id &amp;nbsp;&lt;span style=&quot;color: rgb(150, 150, 150);&quot;&gt;bigint&lt;/span&gt;" style="text;strokeColor=none;fillColor=none;align=left;verticalAlign=middle;spacingLeft=4;spacingRight=4;overflow=hidden;points=[[0,0.5],[1,0.5]];portConstraint=eastwest;rotatable=0;whiteSpace=wrap;html=1;" parent="CKcXtdMAVw7ahf70taSX-122" vertex="1">
          <mxGeometry y="30" width="210" height="30" as="geometry" />
        </mxCell>
        <mxCell id="CKcXtdMAVw7ahf70taSX-124" value="customer_id &lt;font color=&quot;#969696&quot;&gt;&lt;span style=&quot;caret-color: rgb(150, 150, 150);&quot;&gt;bigint&lt;/span&gt;&lt;/font&gt;" style="text;strokeColor=none;fillColor=none;align=left;verticalAlign=middle;spacingLeft=4;spacingRight=4;overflow=hidden;points=[[0,0.5],[1,0.5]];portConstraint=eastwest;rotatable=0;whiteSpace=wrap;html=1;" parent="CKcXtdMAVw7ahf70taSX-122" vertex="1">
          <mxGeometry y="60" width="210" height="30" as="geometry" />
        </mxCell>
        <mxCell id="CKcXtdMAVw7ahf70taSX-127" value="(key)&amp;nbsp;(user_id, customer_id)" style="text;strokeColor=none;fillColor=none;align=left;verticalAlign=middle;spacingLeft=4;spacingRight=4;overflow=hidden;points=[[0,0.5],[1,0.5]];portConstraint=eastwest;rotatable=0;whiteSpace=wrap;html=1;" parent="CKcXtdMAVw7ahf70taSX-122" vertex="1">
          <mxGeometry y="90" width="210" height="30" as="geometry" />
        </mxCell>
        <mxCell id="CKcXtdMAVw7ahf70taSX-128" value="" style="edgeStyle=entityRelationEdgeStyle;fontSize=12;html=1;endArrow=ERoneToMany;rounded=0;exitX=1;exitY=0.5;exitDx=0;exitDy=0;entryX=0;entryY=0.5;entryDx=0;entryDy=0;" parent="1" source="CKcXtdMAVw7ahf70taSX-4" target="CKcXtdMAVw7ahf70taSX-123" edge="1">
          <mxGeometry width="100" height="100" relative="1" as="geometry">
            <mxPoint x="-740" y="-90" as="sourcePoint" />
            <mxPoint x="-640" y="-190" as="targetPoint" />
          </mxGeometry>
        </mxCell>
        <mxCell id="CKcXtdMAVw7ahf70taSX-130" value="" style="edgeStyle=entityRelationEdgeStyle;fontSize=12;html=1;endArrow=ERoneToMany;rounded=0;exitX=0;exitY=0.5;exitDx=0;exitDy=0;entryX=1;entryY=0.5;entryDx=0;entryDy=0;" parent="1" source="CKcXtdMAVw7ahf70taSX-18" target="CKcXtdMAVw7ahf70taSX-124" edge="1">
          <mxGeometry width="100" height="100" relative="1" as="geometry">
            <mxPoint x="-730" y="-90" as="sourcePoint" />
            <mxPoint x="-630" y="-190" as="targetPoint" />
            <Array as="points">
              <mxPoint x="-570" y="-340" />
              <mxPoint x="-560" y="-360" />
            </Array>
          </mxGeometry>
        </mxCell>
        <mxCell id="CKcXtdMAVw7ahf70taSX-135" value="" style="edgeStyle=entityRelationEdgeStyle;fontSize=12;html=1;endArrow=ERoneToMany;rounded=0;exitX=1;exitY=0.5;exitDx=0;exitDy=0;entryX=0;entryY=0.5;entryDx=0;entryDy=0;" parent="1" source="CKcXtdMAVw7ahf70taSX-4" target="CKcXtdMAVw7ahf70taSX-58" edge="1">
          <mxGeometry width="100" height="100" relative="1" as="geometry">
            <mxPoint x="-520" y="-350" as="sourcePoint" />
            <mxPoint x="-420" y="-450" as="targetPoint" />
          </mxGeometry>
        </mxCell>
        <mxCell id="CKcXtdMAVw7ahf70taSX-136" value="" style="edgeStyle=entityRelationEdgeStyle;fontSize=12;html=1;endArrow=ERoneToMany;rounded=0;exitX=1;exitY=0.5;exitDx=0;exitDy=0;entryX=0;entryY=0.5;entryDx=0;entryDy=0;" parent="1" source="CKcXtdMAVw7ahf70taSX-54" target="CKcXtdMAVw7ahf70taSX-49" edge="1">
          <mxGeometry width="100" height="100" relative="1" as="geometry">
            <mxPoint x="-490" y="-625" as="sourcePoint" />
            <mxPoint x="-390" y="-725" as="targetPoint" />
          </mxGeometry>
        </mxCell>
      </root>
    </mxGraphModel>
  </diagram>
</mxfile>
